# File created by Blade
# Date/Time:  Wed Jan 21 14:28:11 2015
# Frame Rate: 120.000 fps
#------------------------------------------------------
:FULLY-SPECIFIED
:DEGREES
356
root 18.853806 35.521314 -21.321383 -173.107767 -2.101087 -178.386371
Spine -6.508011 -3.082428 0.516118
Head -4.961124 -0.246060 2.368229
LeftShoulder -24.069590 2.242517 13.033102
LeftArm -54.630796 6.691896 -87.696613
LeftForeArm 17.834537 -0.000000 -1.777935
LeftHand -5.843778 -0.000000 -44.146882
LeftHandThumb1 -26.253704 0.000000 33.147579
RightShoulder -28.203894 -35.861523 1.896636
RightArm -16.984285 -18.561122 87.725676
RightForeArm -43.505401 0.000000 7.489942
RightHand 1.632779 -0.000000 46.295563
RightHandThumb1 -24.326973 -0.000000 -32.862282
LeftUpLeg 1.462260 8.815145 2.831116
LeftLeg -6.472560 -0.000000 0.000000
LeftFoot -20.240473 27.462809 -12.756355
LeftToeBase 27.018963 -0.000000 -0.000000
RightUpLeg -0.460196 -12.444668 0.061823
RightLeg -2.874901 -0.000000 0.000000
RightFoot -20.159863 -21.163962 17.173882
RightToeBase 25.340937 -0.000000 -0.000000
357
root 18.857370 35.521093 -21.317604 -173.035431 -2.129347 -178.381775
Spine -6.598915 -3.118338 0.533333
Head -4.951314 -0.248473 2.367654
LeftShoulder -24.070593 2.176399 13.037004
LeftArm -54.582812 6.641012 -87.803702
LeftForeArm 17.720145 -0.000000 -1.750383
LeftHand -5.842879 -0.000000 -44.045303
LeftHandThumb1 -26.253704 0.000000 33.147579
RightShoulder -28.166856 -35.748045 1.900821
RightArm -16.951171 -18.604420 87.714145
RightForeArm -43.462687 -0.000000 7.498162
RightHand 1.774569 -0.000000 46.313951
RightHandThumb1 -24.326973 -0.000000 -32.862282
LeftUpLeg 1.373871 8.823797 2.832028
LeftLeg -6.466038 -0.000000 0.000000
LeftFoot -20.227928 27.434451 -12.739420
LeftToeBase 27.030284 -0.000000 -0.000000
RightUpLeg -0.531493 -12.474547 0.092069
RightLeg -2.887620 -0.000000 0.000000
RightFoot -20.163265 -21.159553 17.185045
RightToeBase 25.399519 -0.000000 -0.000000
358
root 18.860065 35.520191 -21.315180 -172.962704 -2.140434 -178.383893
Spine -6.694963 -3.136291 0.541586
Head -4.938632 -0.242197 2.361791
LeftShoulder -24.091760 2.106512 13.033308
LeftArm -54.499331 6.516662 -87.765098
LeftForeArm 17.751858 -0.000000 -1.745524
LeftHand -5.958760 -0.000000 -43.948016
LeftHandThumb1 -26.253704 0.000000 33.147579
RightShoulder -28.112459 -35.610363 1.888902
RightArm -16.924730 -18.589281 87.678021
RightForeArm -43.384911 0.000000 7.479072
RightHand 1.654127 -0.000000 46.294150
RightHandThumb1 -24.326973 -0.000000 -32.862282
LeftUpLeg 1.301878 8.831836 2.823559
LeftLeg -6.480174 -0.000000 0.000000
LeftFoot -20.215470 27.421692 -12.714031
LeftToeBase 27.043871 -0.000000 -0.000000
RightUpLeg -0.596942 -12.486837 0.110779
RightLeg -2.908235 -0.000000 0.000000
RightFoot -20.148250 -21.167208 17.144521
RightToeBase 25.319646 -0.000000 -0.000000
359
root 18.864443 35.519320 -21.312585 -172.895093 -2.147730 -178.373748
Spine -6.787258 -3.134407 0.558671
Head -4.922465 -0.265168 2.357848
LeftShoulder -24.087326 2.038078 13.024129
LeftArm -54.425664 6.435751 -87.819835
LeftForeArm 17.688137 -0.000000 -1.708159
LeftHand -6.009342 -0.000000 -43.872225
LeftHandThumb1 -26.253704 0.000000 33.147579
RightShoulder -28.088609 -35.490501 1.912344
RightArm -16.884075 -18.585773 87.655199
RightForeArm -43.368449 -0.000000 7.503819
RightHand 1.628976 -0.000000 46.285417
RightHandThumb1 -24.326973 -0.000000 -32.862282
LeftUpLeg 1.229543 8.883511 2.827664
LeftLeg -6.487666 -0.000000 0.000000
LeftFoot -20.191325 27.390421 -12.662896
LeftToeBase 27.075093 -0.000000 -0.000000
RightUpLeg -0.661252 -12.507901 0.146603
RightLeg -2.927530 -0.000000 0.000000
RightFoot -20.133479 -21.153754 17.203651
RightToeBase 25.234762 -0.000000 -0.000000
360
root 18.867061 35.518407 -21.310763 -172.831244 -2.146661 -178.386087
Spine -6.879572 -3.133318 0.542024
Head -4.899354 -0.285248 2.365310
LeftShoulder -24.084201 1.931933 13.057800
LeftArm -54.376609 6.328603 -87.874510
LeftForeArm 17.673263 -0.000000 -1.698522
LeftHand -6.119693 -0.000000 -43.684692
LeftHandThumb1 -26.253704 0.000000 33.147579
RightShoulder -28.027026 -35.382209 1.920705
RightArm -16.841420 -18.583284 87.654130
RightForeArm -43.308654 0.000000 7.533281
RightHand 1.560684 0.000000 46.241162
RightHandThumb1 -24.326973 -0.000000 -32.862282
LeftUpLeg 1.168842 8.894719 2.810075
LeftLeg -6.500219 -0.000000 0.000000
LeftFoot -20.185692 27.371233 -12.684848
LeftToeBase 27.063919 -0.000000 -0.000000
RightUpLeg -0.713872 -12.533204 0.152575
RightLeg -2.960224 -0.000000 0.000000
RightFoot -20.119667 -21.148319 17.089885
RightToeBase 25.410064 -0.000000 -0.000000
361
root 18.870935 35.517299 -21.308941 -172.765793 -2.129644 -178.376493
Spine -6.976791 -3.090452 0.553530
Head -4.866800 -0.329157 2.358693
LeftShoulder -24.088966 1.875513 13.019986
LeftArm -54.232159 6.193149 -87.794061
LeftForeArm 17.751828 -0.000000 -1.680588
LeftHand -6.191649 -0.000000 -43.660944
LeftHandThumb1 -26.253704 0.000000 33.147579
RightShoulder -28.012217 -35.324823 1.928898
RightArm -16.695038 -18.579645 87.661496
RightForeArm -43.278769 -0.000000 7.500972
RightHand 1.534356 -0.000000 46.201706
RightHandThumb1 -24.326973 -0.000000 -32.862282
LeftUpLeg 1.111977 8.943125 2.810247
LeftLeg -6.523983 -0.000000 0.000000
LeftFoot -20.181055 27.371432 -12.658592
LeftToeBase 27.103337 -0.000000 -0.000000
RightUpLeg -0.773347 -12.541993 0.182541
RightLeg -2.987790 -0.000000 0.000000
RightFoot -20.104464 -21.132945 17.069826
RightToeBase 25.394097 -0.000000 -0.000000
362
root 18.874570 35.516028 -21.307364 -172.710627 -2.107534 -178.372455
Spine -7.062612 -3.050267 0.563650
Head -4.847051 -0.375209 2.332851
LeftShoulder -24.075232 1.730589 13.025675
LeftArm -54.237340 6.190102 -87.967971
LeftForeArm 17.574050 -0.000000 -1.605309
LeftHand -6.273225 0.000000 -43.536227
LeftHandThumb1 -26.253704 0.000000 33.147579
RightShoulder -27.956016 -35.222800 1.918593
RightArm -16.642674 -18.521417 87.689008
RightForeArm -43.336124 -0.000000 7.571478
RightHand 1.539897 0.000000 46.192776
RightHandThumb1 -24.326973 -0.000000 -32.862282
LeftUpLeg 1.074313 8.964550 2.809924
LeftLeg -6.556802 -0.000000 0.000000
LeftFoot -20.165101 27.373964 -12.647231
LeftToeBase 27.087579 -0.000000 -0.000000
RightUpLeg -0.824527 -12.541522 0.202205
RightLeg -3.007434 -0.000000 0.000000
RightFoot -20.097916 -21.116887 17.046432
RightToeBase 25.392196 -0.000000 -0.000000
363
root 18.877686 35.514601 -21.306440 -172.662160 -2.084790 -178.366585
Spine -7.142821 -3.000905 0.571084
Head -4.818245 -0.411579 2.318128
LeftShoulder -24.065799 1.656739 12.994388
LeftArm -54.082851 6.085387 -87.966514
LeftForeArm 17.545913 -0.000000 -1.627669
LeftHand -6.342285 -0.000000 -43.430147
LeftHandThumb1 -26.253704 0.000000 33.147579
RightShoulder -27.921952 -35.132765 1.928636
RightArm -16.553462 -18.437569 87.694762
RightForeArm -43.441962 -0.000000 7.653204
RightHand 1.571724 -0.000000 46.134607
RightHandThumb1 -24.326973 -0.000000 -32.862282
LeftUpLeg 1.034347 9.022334 2.812801
LeftLeg -6.572558 -0.000000 0.000000
LeftFoot -20.185528 27.376595 -12.534904
LeftToeBase 27.409273 -0.000000 -0.000000
RightUpLeg -0.859556 -12.535033 0.221032
RightLeg -3.043542 -0.000000 0.000000
RightFoot -20.065105 -21.101716 17.001791
RightToeBase 25.402325 -0.000000 -0.000000
364
root 18.882296 35.512875 -21.305165 -172.615728 -2.058211 -178.355228
Spine -7.220061 -2.945929 0.580722
Head -4.793175 -0.413880 2.306476
LeftShoulder -24.059101 1.549045 12.976328
LeftArm -53.980255 6.009074 -87.982659
LeftForeArm 17.473919 -0.000000 -1.605743
LeftHand -6.337435 -0.000000 -43.422656
LeftHandThumb1 -26.253704 0.000000 33.147579
RightShoulder -27.848334 -35.001271 1.884306
RightArm -16.517428 -18.414566 87.757343
RightForeArm -43.445172 -0.000000 7.763940
RightHand 1.498612 -0.000000 46.242968
RightHandThumb1 -24.326973 -0.000000 -32.862282
LeftUpLeg 1.012901 9.019242 2.820032
LeftLeg -6.616860 -0.000000 0.000000
LeftFoot -20.143553 27.399624 -12.579949
LeftToeBase 27.164244 -0.000000 -0.000000
RightUpLeg -0.890405 -12.500820 0.246066
RightLeg -3.086173 -0.000000 0.000000
RightFoot -20.053127 -21.110735 16.999390
RightToeBase 25.371322 -0.000000 -0.000000
365
root 18.886213 35.511713 -21.305447 -172.576690 -2.031629 -178.351550
Spine -7.295935 -2.886228 0.575401
Head -4.766617 -0.441363 2.306808
LeftShoulder -24.039243 1.430760 12.962656
LeftArm -53.901699 5.978701 -88.114532
LeftForeArm 17.446520 -0.000000 -1.557242
LeftHand -6.354424 -0.000000 -43.307244
LeftHandThumb1 -26.253704 0.000000 33.147579
RightShoulder -27.801318 -34.906494 1.886877
RightArm -16.440144 -18.476947 87.843197
RightForeArm -43.414772 -0.000000 7.873074
RightHand 1.510773 -0.000000 46.200940
RightHandThumb1 -24.326973 -0.000000 -32.862282
LeftUpLeg 0.994098 9.031232 2.821667
LeftLeg -6.647639 -0.000000 0.000000
LeftFoot -20.141358 27.413730 -12.596906
LeftToeBase 27.150774 -0.000000 -0.000000
RightUpLeg -0.913336 -12.497602 0.261273
RightLeg -3.124789 -0.000000 0.000000
RightFoot -20.027081 -21.107051 16.944021
RightToeBase 25.428067 -0.000000 -0.000000
366
root 18.889777 35.510566 -21.305335 -172.547401 -2.006148 -178.349091
Spine -7.358475 -2.816813 0.571654
Head -4.743712 -0.454974 2.294900
LeftShoulder -24.012296 1.272411 12.950471
LeftArm -53.824536 5.873212 -88.092784
LeftForeArm 17.318743 -0.000000 -1.541951
LeftHand -6.385476 -0.000000 -43.255838
LeftHandThumb1 -26.253704 0.000000 33.147579
RightShoulder -27.761883 -34.797806 1.901133
RightArm -16.351709 -18.505174 87.925941
RightForeArm -43.389847 0.000000 7.984306
RightHand 1.628317 -0.000000 46.313010
RightHandThumb1 -24.326973 -0.000000 -32.862282
LeftUpLeg 0.977441 9.034025 2.824782
LeftLeg -6.660459 -0.000000 0.000000
LeftFoot -20.140710 27.430479 -12.595900
LeftToeBase 27.123508 -0.000000 -0.000000
RightUpLeg -0.927989 -12.478603 0.273092
RightLeg -3.162023 -0.000000 0.000000
RightFoot -20.022786 -21.093721 16.928615
RightToeBase 25.469730 -0.000000 -0.000000
367
root 18.893610 35.509376 -21.305724 -172.519206 -1.975081 -178.345692
Spine -7.420509 -2.753194 0.571602
Head -4.733800 -0.435575 2.268905
LeftShoulder -24.003850 1.144917 12.921789
LeftArm -53.731750 5.847597 -88.172591
LeftForeArm 17.070099 -0.000000 -1.504358
LeftHand -6.461856 0.000000 -43.175652
LeftHandThumb1 -26.253704 0.000000 33.147579
RightShoulder -27.703754 -34.685380 1.885037
RightArm -16.228355 -18.550889 88.009639
RightForeArm -43.332676 -0.000000 8.029551
RightHand 1.388784 -0.000000 46.066541
RightHandThumb1 -24.326973 -0.000000 -32.862282
LeftUpLeg 0.963825 9.036447 2.828726
LeftLeg -6.677967 -0.000000 0.000000
LeftFoot -20.137438 27.462508 -12.577005
LeftToeBase 27.126689 -0.000000 -0.000000
RightUpLeg -0.945657 -12.473232 0.286270
RightLeg -3.191119 -0.000000 0.000000
RightFoot -19.997591 -21.086360 16.892726
RightToeBase 25.466264 -0.000000 -0.000000
